# xmcd
#
# Track frame offsets: 
#        182
#        13462
#        26635
#        36912
#        49837
#        60995
#        73417
#        83702
#        92277
#        102897
#        116457
#        129212
#        141267
#        152157
#        160420
#        173667
#        184952
#        193980
#        205702
#        220605
#        233450
#        244605
#        256232
#        265425
#        279380
#        293137
#        309952
#        322770
#
# Disc length: 4481 seconds
#
# Revision: 4
# Processed by: cddbd v1.5.2PL0 Copyright (c) Steve Scherf et al.
# Submitted via: ExactAudioCopyFreeDBPlugin 1.0
#
DISCID=85117f1c
DTITLE=Various Artist - The Chess Story:  2120 South Michigan Ave., 1
DTITLE=947-1975 [box set]
DYEAR=1999
DGENRE=Rhythm and Blues
TTITLE0=Etta James - All I Could Do Was Cry
TTITLE1=Otis Rush - All Your Love
TTITLE2=Elmore James - I Can't Hold Out (Talk to Me Baby)
TTITLE3=Etta James and Harvey Fuqua - If I Can't Have You
TTITLE4=Lowell Fulson - Blue Shadows
TTITLE5=Howlin' Wolf - Spoonful
TTITLE6=Muddy Waters - Tiger in Your Tank
TTITLE7=Bo Diddley - Gunslinger
TTITLE8=Clarence "Frogman" Henry - (I Don't Know Why) But I Do
TTITLE9=Etta James - At Last
TTITLE10=Howlin' Wolf - Back Door Man
TTITLE11=The Vibrations - The Watusi
TTITLE12=Little Walter - Just Your Fool
TTITLE13=Chuck Berry - Come On
TTITLE14=Albert King - I Won't Be Hanging Around
TTITLE15=Clarence "Frogman" Henry - You Always Hurt the One You Love
TTITLE16=The Marathons - Peanut Butter
TTITLE17=Howlin' Wolf - Down in the Bottom (unedited version)
TTITLE18=The Sensations - Music, Music, Music
TTITLE19=Betty James - I'm a Little Mixed Up
TTITLE20=Howlin' Wolf - Little Red Rooster
TTITLE21=Little Milton - So Mean to Me
TTITLE22=Jackie Cannon - Proof of Your Love
TTITLE23=The Sensations - Let Me In
TTITLE24=The Corsairs - Smokey Places
TTITLE25=Sonny Boy Williamson [II] - Nine Below Zero (unedited version
TTITLE25=)
TTITLE26=Etta James - Something's Got a Hold on Me
TTITLE27=Buddy Guy - Stone Crazy
EXTD=YEAR: 1999 ID3G:   0
EXTT0=
EXTT1=
EXTT2=
EXTT3=
EXTT4=
EXTT5=
EXTT6=
EXTT7=
EXTT8=
EXTT9=
EXTT10=
EXTT11=
EXTT12=
EXTT13=
EXTT14=
EXTT15=
EXTT16=
EXTT17=
EXTT18=
EXTT19=
EXTT20=
EXTT21=
EXTT22=
EXTT23=
EXTT24=
EXTT25=
EXTT26=
EXTT27=
PLAYORDER=
